# xmcd
#
# Track frame offsets:
#	150
#	15498
#	30921
#	40494
#	57192
#	75390
#	92163
#	115836
#	125559
#	139107
#	151605
#	168153
#	180276
#	196149
#
# Disc length: 2757 seconds
#
# Revision: 1
# Processed by: cddbd v1.5.2PL0 Copyright (c) Steve Scherf et al.
# Submitted via: audiograbber 1.83.01
#
DISCID=9c0ac30e
DTITLE=Die Autobahnkapelle - It Ain't Funny
DYEAR=2009
DGENRE=
TTITLE0=I Crave My Pigmeat
TTITLE1=Hey, Hey Daddy Blues
TTITLE2=Cakewalk Into Town
TTITLE3=Seperation Blues
TTITLE4=Whining Boy Blues
TTITLE5=I Wanna Be Like You
TTITLE6=Ain't Nobodies Business
TTITLE7=C Rag
TTITLE8=Walk Right In
TTITLE9=I Wish I Could Shimmy Like My Sister Kate
TTITLE10=Nobody Knows You When You're Down and Out
TTITLE11=Jiving Woman Blues
TTITLE12=Early Morning Blues
TTITLE13=They're Red Hot
EXTD=
EXTT0=
EXTT1=
EXTT2=
EXTT3=
EXTT4=
EXTT5=
EXTT6=
EXTT7=
EXTT8=
EXTT9=
EXTT10=
EXTT11=
EXTT12=
EXTT13=
PLAYORDER=
